<svg width="32" height="31" viewBox="0 0 32 31" fill="none" xmlns="http://www.w3.org/2000/svg">
<path d="M28.5714 0H3.42857C2.51926 0 1.64719 0.344804 1.00421 0.95856C0.361223 1.57232 0 2.40475 0 3.27273L0 27.2727C0 28.1407 0.361223 28.9731 1.00421 29.5869C1.64719 30.2007 2.51926 30.5455 3.42857 30.5455H13.2321V20.1607H8.73214V15.2727H13.2321V11.5473C13.2321 7.30977 15.875 4.96909 19.9229 4.96909C21.8614 4.96909 23.8886 5.29909 23.8886 5.29909V9.45818H21.655C19.4543 9.45818 18.7679 10.7618 18.7679 12.0989V15.2727H23.6807L22.895 20.1607H18.7679V30.5455H28.5714C29.4807 30.5455 30.3528 30.2007 30.9958 29.5869C31.6388 28.9731 32 28.1407 32 27.2727V3.27273C32 2.40475 31.6388 1.57232 30.9958 0.95856C30.3528 0.344804 29.4807 0 28.5714 0Z" fill="white"/>
</svg>
