<svg width="32" height="31" viewBox="0 0 32 31" fill="none" xmlns="http://www.w3.org/2000/svg">
<path d="M10.7032 24.0613C10.7032 24.1824 10.5548 24.2793 10.3677 24.2793C10.1548 24.2975 10.0065 24.2006 10.0065 24.0613C10.0065 23.9402 10.1548 23.8434 10.3419 23.8434C10.5355 23.8252 10.7032 23.9221 10.7032 24.0613ZM8.69677 23.7889C8.65161 23.91 8.78065 24.0492 8.97419 24.0855C9.14194 24.1461 9.33548 24.0855 9.37419 23.9644C9.4129 23.8434 9.29032 23.7041 9.09677 23.6496C8.92903 23.6072 8.74194 23.6678 8.69677 23.7889ZM11.5484 23.6859C11.3613 23.7283 11.2323 23.8434 11.2516 23.9826C11.271 24.1037 11.4387 24.1824 11.6323 24.14C11.8194 24.0977 11.9484 23.9826 11.929 23.8615C11.9097 23.7465 11.7355 23.6678 11.5484 23.6859ZM15.7935 0.484375C6.84516 0.484375 0 6.85996 0 15.2578C0 21.9725 4.50323 27.7184 10.9355 29.7406C11.7613 29.8799 12.0516 29.4016 12.0516 29.008C12.0516 28.6326 12.0323 26.5619 12.0323 25.2904C12.0323 25.2904 7.51613 26.1986 6.56774 23.4861C6.56774 23.4861 5.83226 21.7242 4.77419 21.2701C4.77419 21.2701 3.29677 20.3195 4.87742 20.3377C4.87742 20.3377 6.48387 20.4588 7.36774 21.8998C8.78064 24.2369 11.1484 23.5648 12.071 23.1652C12.2194 22.1965 12.6387 21.5244 13.1032 21.1248C9.49677 20.7494 5.85806 20.259 5.85806 14.4344C5.85806 12.7693 6.34839 11.9338 7.38065 10.8682C7.2129 10.4746 6.66452 8.85195 7.54839 6.75703C8.89677 6.36348 12 8.3918 12 8.3918C13.2903 8.05273 14.6774 7.87715 16.0516 7.87715C17.4258 7.87715 18.8129 8.05273 20.1032 8.3918C20.1032 8.3918 23.2065 6.35742 24.5548 6.75703C25.4387 8.85801 24.8903 10.4746 24.7226 10.8682C25.7548 11.9398 26.3871 12.7754 26.3871 14.4344C26.3871 20.2771 22.5871 20.7434 18.9806 21.1248C19.5742 21.6031 20.0774 22.5113 20.0774 23.9342C20.0774 25.9746 20.0581 28.4994 20.0581 28.9959C20.0581 29.3894 20.3548 29.8678 21.1742 29.7285C27.6258 27.7184 32 21.9725 32 15.2578C32 6.85996 24.7419 0.484375 15.7935 0.484375ZM6.27097 21.367C6.1871 21.4275 6.20645 21.5668 6.31613 21.6818C6.41935 21.7787 6.56774 21.8211 6.65161 21.7424C6.73548 21.6818 6.71613 21.5426 6.60645 21.4275C6.50323 21.3307 6.35484 21.2883 6.27097 21.367ZM5.57419 20.8766C5.52903 20.9553 5.59355 21.0521 5.72258 21.1127C5.82581 21.1732 5.95484 21.1551 6 21.0703C6.04516 20.9916 5.98064 20.8947 5.85161 20.8342C5.72258 20.7978 5.61935 20.816 5.57419 20.8766ZM7.66452 23.032C7.56129 23.1107 7.6 23.2924 7.74839 23.4074C7.89677 23.5467 8.08387 23.5648 8.16774 23.468C8.25161 23.3893 8.2129 23.2076 8.08387 23.0926C7.94194 22.9533 7.74839 22.9352 7.66452 23.032ZM6.92903 22.142C6.82581 22.2025 6.82581 22.36 6.92903 22.4992C7.03226 22.6385 7.20645 22.699 7.29032 22.6385C7.39355 22.5598 7.39355 22.4023 7.29032 22.2631C7.2 22.1238 7.03226 22.0633 6.92903 22.142Z" fill="white"/>
</svg>
