<svg width="32" height="31" viewBox="0 0 32 31" fill="none" xmlns="http://www.w3.org/2000/svg">
<path d="M16.0036 7.43961C11.4632 7.43961 7.801 10.9354 7.801 15.2694C7.801 19.6033 11.4632 23.0991 16.0036 23.0991C20.5439 23.0991 24.2061 19.6033 24.2061 15.2694C24.2061 10.9354 20.5439 7.43961 16.0036 7.43961ZM16.0036 20.3597C13.0695 20.3597 10.6708 18.0769 10.6708 15.2694C10.6708 12.4618 13.0624 10.179 16.0036 10.179C18.9448 10.179 21.3363 12.4618 21.3363 15.2694C21.3363 18.0769 18.9376 20.3597 16.0036 20.3597ZM26.4549 7.11934C26.4549 8.13468 25.5982 8.9456 24.5417 8.9456C23.478 8.9456 22.6284 8.12787 22.6284 7.11934C22.6284 6.11081 23.4851 5.29308 24.5417 5.29308C25.5982 5.29308 26.4549 6.11081 26.4549 7.11934ZM31.8876 8.97285C31.7662 6.52649 31.1808 4.35951 29.3033 2.57414C27.4329 0.788766 25.1627 0.229986 22.5999 0.107327C19.9585 -0.0357756 12.0415 -0.0357756 9.40011 0.107327C6.8444 0.223171 4.57423 0.781952 2.69671 2.56732C0.819186 4.35269 0.240937 6.51967 0.112437 8.96604C-0.0374791 11.4874 -0.0374791 19.0445 0.112437 21.5658C0.233798 24.0122 0.819186 26.1792 2.69671 27.9646C4.57423 29.7499 6.83726 30.3087 9.40011 30.4314C12.0415 30.5745 19.9585 30.5745 22.5999 30.4314C25.1627 30.3155 27.4329 29.7568 29.3033 27.9646C31.1737 26.1792 31.7591 24.0122 31.8876 21.5658C32.0375 19.0445 32.0375 11.4942 31.8876 8.97285ZM28.4752 24.2712C27.9184 25.6068 26.8404 26.6358 25.434 27.1741C23.3281 27.9714 18.3308 27.7874 16.0036 27.7874C13.6763 27.7874 8.67195 27.9646 6.57312 27.1741C5.1739 26.6426 4.09593 25.6136 3.53196 24.2712C2.69671 22.2609 2.88946 17.4908 2.88946 15.2694C2.88946 13.0479 2.70385 8.27097 3.53196 6.26754C4.08879 4.93192 5.16676 3.90294 6.57312 3.36461C8.67909 2.56732 13.6763 2.75131 16.0036 2.75131C18.3308 2.75131 23.3352 2.57414 25.434 3.36461C26.8332 3.89613 27.9112 4.9251 28.4752 6.26754C29.3104 8.27778 29.1177 13.0479 29.1177 15.2694C29.1177 17.4908 29.3104 22.2677 28.4752 24.2712Z" fill="white"/>
</svg>
