<svg width="32" height="35" viewBox="0 0 32 35" fill="none" xmlns="http://www.w3.org/2000/svg">
<path d="M27.2071 6.62046C24.2143 3.75682 20.2286 2.18182 15.9929 2.18182C7.25 2.18182 0.135714 8.97273 0.135714 17.3182C0.135714 19.9841 0.864286 22.5886 2.25 24.8864L0 32.7273L8.40714 30.6205C10.7214 31.8273 13.3286 32.4614 15.9857 32.4614H15.9929C24.7286 32.4614 32 25.6705 32 17.325C32 13.2818 30.2 9.4841 27.2071 6.62046ZM15.9929 29.9114C13.6214 29.9114 11.3 29.3045 9.27857 28.1591L8.8 27.8864L3.81429 29.1341L5.14286 24.4909L4.82857 24.0136C3.50714 22.0091 2.81429 19.6977 2.81429 17.3182C2.81429 10.3841 8.72857 4.73864 16 4.73864C19.5214 4.73864 22.8286 6.04773 25.3143 8.42728C27.8 10.8068 29.3286 13.9636 29.3214 17.325C29.3214 24.2659 23.2571 29.9114 15.9929 29.9114ZM23.2214 20.4886C22.8286 20.2977 20.8786 19.3841 20.5143 19.2614C20.15 19.1318 19.8857 19.0705 19.6214 19.4523C19.3571 19.8341 18.6 20.6795 18.3643 20.9386C18.1357 21.1909 17.9 21.225 17.5071 21.0341C15.1786 19.9227 13.65 19.05 12.1143 16.5341C11.7071 15.8659 12.5214 15.9136 13.2786 14.4682C13.4071 14.2159 13.3429 13.9977 13.2429 13.8068C13.1429 13.6159 12.35 11.7545 12.0214 10.9977C11.7 10.2614 11.3714 10.3636 11.1286 10.35C10.9 10.3364 10.6357 10.3364 10.3714 10.3364C10.1071 10.3364 9.67857 10.4318 9.31429 10.8068C8.95 11.1886 7.92857 12.1023 7.92857 13.9636C7.92857 15.825 9.35 17.625 9.54286 17.8773C9.74286 18.1295 12.3357 21.9477 16.3143 23.5909C18.8286 24.6273 19.8143 24.7159 21.0714 24.5386C21.8357 24.4295 23.4143 23.625 23.7429 22.7386C24.0714 21.8523 24.0714 21.0955 23.9714 20.9386C23.8786 20.7682 23.6143 20.6727 23.2214 20.4886Z" fill="white"/>
</svg>
